#tb 0: 1/10
#media_type 0: video
#codec_id 0: gif
#dimensions 0: 217x217
#sar 0: 0/1
0,          0,          0,        1,     2109, 0x39642b3d
0,          1,          1,        1,      236, 0x332769fd, F=0x0
0,          2,          2,        1,      186, 0x770d5061, F=0x0
0,          3,          3,        1,      208, 0x55784c8f, F=0x0
0,          4,          4,        1,      282, 0x98e8825d, F=0x0
0,          5,          5,        1,      209, 0x4cc15280, F=0x0
0,          6,          6,        1,      225, 0xf8785d6c, F=0x0
0,          7,          7,        1,      204, 0x322754b4, F=0x0
0,          8,          8,        1,      181, 0x9f4f4d10, F=0x0
0,          9,          9,        1,      200, 0x64a453a1, F=0x0
0,         10,         10,        1,      184, 0x79c344d3, F=0x0
0,         11,         11,        1,      191, 0x7097487b, F=0x0
0,         12,         12,        1,      290, 0x1f998186, F=0x0
0,         13,         13,        1,      153, 0xfe4c3a7c, F=0x0
0,         14,         14,        1,      175, 0xfdf442e0, F=0x0
0,         15,         15,        1,      187, 0x393845f2, F=0x0
0,         16,         16,        1,      418, 0xe94bc757, F=0x0
0,         17,         17,        1,      200, 0x8dab52be, F=0x0
0,         18,         18,        1,      347, 0xae379838, F=0x0
0,         19,         19,        1,      176, 0x868742d2, F=0x0
0,         20,         20,        1,      294, 0xb1fb8365, F=0x0
0,         21,         21,        1,      166, 0x06e44260, F=0x0
0,         22,         22,        1,      306, 0x29e983b7, F=0x0
0,         23,         23,        1,      180, 0xfa4a44eb, F=0x0
0,         24,         24,        1,      207, 0x99de52c8, F=0x0
0,         25,         25,        1,      204, 0x73944c35, F=0x0
0,         26,         26,        1,      259, 0xa0637375, F=0x0
0,         27,         27,        1,      181, 0x130f4b9a, F=0x0
0,         28,         28,        1,      152, 0x4be93cae, F=0x0
0,         29,         29,        1,      194, 0x81e34e1d, F=0x0
0,         30,         30,        1,      159, 0x5913380b, F=0x0
0,         31,         31,        1,      162, 0xf0683bb1, F=0x0
0,         32,         32,        1,      178, 0xce32498c, F=0x0
0,         33,         33,        1,      187, 0x5d61509f, F=0x0
0,         34,         34,        1,      336, 0xe5569440, F=0x0
0,         35,         35,        1,      184, 0x3fa349ea, F=0x0
0,         36,         36,        1,      227, 0x7cad5f66, F=0x0
0,         37,         37,        1,      182, 0xf23a4522, F=0x0
0,         38,         38,        1,      162, 0x2a053dcc, F=0x0
0,         39,         39,        1,      187, 0xc18a4686, F=0x0
0,         40,         40,        1,      503, 0xa5a7e669, F=0x0
0,         41,         41,        1,      167, 0xa28a43e8, F=0x0
0,         42,         42,        1,      289, 0xf1968090, F=0x0
0,         43,         43,        1,      194, 0xedbb4eb7, F=0x0
0,         44,         44,        1,      285, 0x82e7818b, F=0x0
0,         45,         45,        1,      199, 0x5e725190, F=0x0
0,         46,         46,        1,      197, 0x0c6a4fb9, F=0x0
0,         47,         47,        1,      203, 0x05684b96, F=0x0
0,         48,         48,        1,      208, 0xd33457ad, F=0x0
0,         49,         49,        1,     1198, 0x029f5f1b, F=0x0
0,         50,         50,        1,      175, 0xf4e94c40, F=0x0
0,         51,         51,        1,      740, 0x6e096787, F=0x0
0,         52,         52,        1,      180, 0xf34f45be, F=0x0
0,         53,         53,        1,      238, 0xfbed6adb, F=0x0
0,         54,         54,        1,      198, 0x6f3a5344, F=0x0
0,         55,         55,        1,      196, 0x8bbb4b02, F=0x0
0,         56,         56,        1,      224, 0x92c55d92, F=0x0
0,         57,         57,        1,      765, 0xd16e6d65, F=0x0
0,         58,         58,        1,      149, 0x97aa38d2, F=0x0
0,         59,         59,        1,      479, 0x1030d73b, F=0x0
0,         60,         60,        1,      179, 0x441e493a, F=0x0
0,         61,         61,        1,      217, 0x16c259b7, F=0x0
0,         62,         62,        1,      190, 0x5b2349ca, F=0x0
0,         63,         63,        1,      155, 0x422f39ff, F=0x0
0,         64,         64,        1,      167, 0x28444898, F=0x0
0,         65,         65,        1,      649, 0x57b331e2, F=0x0
0,         66,         66,        1,      196, 0x99a1574f, F=0x0
0,         67,         67,        1,      427, 0xfd45d548, F=0x0
0,         68,         68,        1,      175, 0x90cc42ce, F=0x0
0,         69,         69,        1,      284, 0x49398208, F=0x0
0,         70,         70,        1,      131, 0x18e42fc2, F=0x0
0,         71,         71,        1,      256, 0xac896bbe, F=0x0
0,         72,         72,        1,      186, 0x522d4974, F=0x0
0,         73,         73,        1,      190, 0x5e064e04, F=0x0
0,         74,         74,        1,      216, 0x863f53fa, F=0x0
0,         75,         75,        1,      154, 0x17f1383f, F=0x0
0,         76,         76,        1,      113, 0x20f827ee, F=0x0
0,         77,         77,        1,      402, 0xce2caf45, F=0x0
0,         78,         78,        1,      198, 0x0bc851ae, F=0x0
0,         79,         79,        1,      466, 0xb31ad387, F=0x0
0,         80,         80,        1,      322, 0x20018e02, F=0x0
0,         81,         81,        1,      387, 0x5038b1b8, F=0x0
0,         82,         82,        1,      158, 0xc6ac3feb, F=0x0
0,         83,         83,        1,      278, 0x59f17c03, F=0x0
0,         84,         84,        1,      190, 0xd7665022, F=0x0
0,         85,         85,        1,      175, 0x1a6e4225, F=0x0
0,         86,         86,        1,      206, 0xc3f44e3a, F=0x0
0,         87,         87,        1,      379, 0xb1e6b77e, F=0x0
0,         88,         88,        1,      202, 0x17975145, F=0x0
0,         89,         89,        1,      225, 0x96985fd2, F=0x0
0,         90,         90,        1,      175, 0x71b1497a, F=0x0
0,         91,         91,        1,      235, 0x2bdc5faa, F=0x0
0,         92,         92,        1,      185, 0x68124958, F=0x0
0,         93,         93,        1,      182, 0x120c4c63, F=0x0
0,         94,         94,        1,      114, 0xdd9b2b02, F=0x0
0,         95,         95,        1,      176, 0x0d5b4b46, F=0x0
0,         96,         96,        1,      214, 0xfb5e5b47, F=0x0
0,         97,         97,        1,      182, 0xf4c54860, F=0x0
0,         98,         98,        1,      195, 0x6e075188, F=0x0
0,         99,         99,        1,      303, 0x4c158465, F=0x0
0,        100,        100,        1,      191, 0x12005055, F=0x0
0,        101,        101,        1,      177, 0x01ed4929, F=0x0
0,        102,        102,        1,      172, 0x86984280, F=0x0
0,        103,        103,        1,      179, 0xb854481c, F=0x0
0,        104,        104,        1,      188, 0xeacd47ed, F=0x0
0,        105,        105,        1,      177, 0x36be4889, F=0x0
0,        106,        106,        1,      215, 0x6aa65c99, F=0x0
0,        107,        107,        1,      339, 0x1af496b2, F=0x0
0,        108,        108,        1,      189, 0x941045fa, F=0x0
0,        109,        109,        1,      209, 0x37445651, F=0x0
0,        110,        110,        1,      205, 0x9cf85222, F=0x0
0,        111,        111,        1,      185, 0x8b964cb5, F=0x0
0,        112,        112,        1,      211, 0xd03d59ce, F=0x0
0,        113,        113,        1,      178, 0xe40e4c08, F=0x0
0,        114,        114,        1,      195, 0x971d4d92, F=0x0
0,        115,        115,        1,      116, 0x5f9a2d3f, F=0x0
0,        116,        116,        1,      116, 0x5c4e2d06, F=0x0
0,        117,        117,        1,      427, 0x6128c7da, F=0x0
0,        118,        118,        1,      182, 0x8a9a4a85, F=0x0
0,        119,        119,        1,      267, 0x94e16d98, F=0x0
0,        120,        120,        1,      191, 0x8cd6499b, F=0x0
0,        121,        121,        1,      195, 0x2955524a, F=0x0
0,        122,        122,        1,      755, 0x21115eef, F=0x0
0,        123,        123,        1,      179, 0x89ff45fd, F=0x0
0,        124,        124,        1,      522, 0x1b1cf19d, F=0x0
0,        125,        125,        1,      171, 0x48034194, F=0x0
0,        126,        126,        1,      379, 0x3914a793, F=0x0
0,        127,        127,        1,      539, 0x7155fc34, F=0x0
0,        128,        128,        1,      199, 0xb8674f8a, F=0x0
0,        129,        129,        1,      458, 0x0a87ce97, F=0x0
0,        130,        130,        1,      177, 0xac704b44, F=0x0
0,        131,        131,        1,      299, 0x49318aa9, F=0x0
0,        132,        132,        1,      333, 0xa188949d, F=0x0
0,        133,        133,        1,      179, 0x2474436d, F=0x0
0,        134,        134,        1,      263, 0x84e871f8, F=0x0
0,        135,        135,        1,      177, 0xf7904597, F=0x0
0,        136,        136,        1,      184, 0xb053486d, F=0x0
0,        137,        137,        1,      433, 0xd3c0c5a1, F=0x0
0,        138,        138,        1,     1138, 0xd5af3462, F=0x0
0,        139,        139,        1,      863, 0xdce99f4f, F=0x0
0,        140,        140,        1,      328, 0x608a949d, F=0x0
0,        141,        141,        1,      222, 0xecb75a19, F=0x0
0,        142,        142,        1,      171, 0x6cf94548, F=0x0
0,        143,        143,        1,      222, 0xcf8d5778, F=0x0
0,        144,        144,        1,      738, 0x9cf358a2, F=0x0
0,        145,        145,        1,      444, 0x3798cdf6, F=0x0
0,        146,        146,        1,      267, 0x8ca87717, F=0x0
0,        147,        147,        1,      187, 0x4d734c80, F=0x0
0,        148,        148,        1,      186, 0x9def4fb6, F=0x0
0,        149,        149,        1,      196, 0x49214f94, F=0x0
0,        150,        150,        1,      589, 0x02e2142f, F=0x0
0,        151,        151,        1,      188, 0x285c4dad, F=0x0
0,        152,        152,        1,      339, 0x8a0fa092, F=0x0
0,        153,        153,        1,      179, 0x775543d4, F=0x0
0,        154,        154,        1,      294, 0x0c8885eb, F=0x0
0,        155,        155,        1,      291, 0xd78084b1, F=0x0
0,        156,        156,        1,      144, 0xd7323963, F=0x0
0,        157,        157,        1,      182, 0x97194ede, F=0x0
0,        158,        158,        1,      195, 0x410f50a6, F=0x0
0,        159,        159,        1,      268, 0xb878789a, F=0x0
0,        160,        160,        1,      526, 0x6e13fb3e, F=0x0
0,        161,        161,        1,      372, 0xf1fca999, F=0x0
0,        162,        162,        1,      171, 0x86033fb7, F=0x0
0,        163,        163,        1,      344, 0x8db8a374, F=0x0
0,        164,        164,        1,      159, 0xa3463fb6, F=0x0
0,        165,        165,        1,      391, 0x6ab1aa7d, F=0x0
0,        166,        166,        1,      180, 0x55d04d01, F=0x0
0,        167,        167,        1,      303, 0xac779365, F=0x0
0,        168,        168,        1,      180, 0x54e94840, F=0x0
0,        169,        169,        1,      269, 0x56e57720, F=0x0
0,        170,        170,        1,      199, 0x510b5589, F=0x0
0,        171,        171,        1,      287, 0xd70d8529, F=0x0
0,        172,        172,        1,      217, 0x04a0649e, F=0x0
